<mxfile host="app.diagrams.net" modified="2023-11-26T14:16:13.467Z" agent="5.0 (Windows NT 10.0; WOW64) AppleWebKit/537.36 (KHTML, like Gecko) Chrome/86.0.4240.198 Safari/537.36" version="20.7.4" etag="TNXUsdXoY3AImCPJ0M01" type="github">
  <diagram id="LfKhRsgeO8Lxn1zCREiu" name="第 1 页">
    <mxGraphModel dx="2603" dy="742" grid="0" gridSize="10" guides="1" tooltips="1" connect="1" arrows="1" fold="1" page="1" pageScale="1" pageWidth="1169" pageHeight="827" math="0" shadow="0">
      <root>
        <mxCell id="0" />
        <mxCell id="1" parent="0" />
        <mxCell id="JHHaosXWpRZCY0voXGrj-1" value="" style="shape=image;verticalLabelPosition=bottom;labelBackgroundColor=default;verticalAlign=top;aspect=fixed;imageAspect=0;image=data:image/png,iVBORw0KGgoAAAANSUhEUgAABIUAAAArCAYAAADmFTggAAAgAElEQVR4Ae1d649V13XPXzJV5CRK1FycAQyYh02YmPAa0ylyEuMh1MRDIdYQJ0KoDsSJPR4bktgZiDSJ6QfLthRB47RQlValVdWm4H+BSuRTvvoT3/xtVfux9llr7XUed+6dO+fcu5COzr3n7Md6/Nbes37sve/ndu/eDXaZDQwDhgHDgGHAMGAYMAwYBgwDhgHDgGHAMGAYMAxMFgY+Zw6fLIebv83fhgHDgGHAMGAYMAwYBgwDhgHDgGHAMGAYMAw4DBgpZCulbKWYYcAwYBgwDBgGDAOGAcOAYcAwYBgwDBgGDAMTiIHPbdmyBaampuwyGxgGFAx88Ytfgl6vZ5fZwDDQYQxYHNsYZuP45GDA4n1yfG1x3W5fWyy22z8WP+YfF6N4GSmkEAFGkhlJiBiwCc0GTJs0u48Bi+Pu+9Di0HzYFAMW74aVplixcuuLFYvF9bWv4dfsOygGXIziZaSQkUK2QqgCAzah2YA76IBr9TceQxbHG+8DiwPzwagwYPFuWBsV1qyfaqxZLFbbx/Bj9tloDLgYxctIoQpCAFeL2H1yVw7ZhGYD9kYP2Nb/4Bi0OB7choZDs2FXMGDxbljtClbHXU6LRYvFccd41/VzMYqXkUJGCtlKoQoM2IRmE1rXB3yTv+cnPLODxbJhYDIwYPP2ZPjZ4rn9frZYbL+PLI4m20dICLm7kUIVhICtEJrcFULoe5vQJnuwtMlyPPxvcTwefrR4ND82wYDFu+GkCU6szPrjxGJx/W1sODYbD4IBF6N4GSlkpJCtFKrAgE1oNtgOMtha3Xbgx+K4HX6weDA/jAIDFu+Gs1HgzPqox5nFYr2NDEdmo43EgItRvIwUqiAEcLWI3Sd3xZBNaDZYb+RgbX0PB38Wx8Oxo+HR7NgFDFi8G067gNNJkNFi0WJxEnDeZR1djOJlpJCRQrZSqAIDNqHZhNblwd5kD/i1OLY4tliYHAxYvE+Ory2u2+1ri8V2+8fix/zjYhQvI4UqCAFbITS5K4TQ9zah2YBpk2b3MWBx3H0fWhyaD5tiwOLdsNIUK1ZufbFisbi+9jX8mn0HxYCLUbyMFDJSyFYKVWDAJjQbcAcdcK3+xmPI4njjfWBxYD4YFQYs3g1ro8Ka9VONNYvFavsYfsw+G40BF6N4GSlUQQjgahG7T+6KIZvQbMDe6AHb+h8cgxbHg9vQcGg27AoGLN4Nq13B6rjLabFosTjuGO+6fi5G8TJSyEghWylUgQGb0GxC6/qAb/L3/IRndrBYNgxMBgZs3p4MP1s8t9/PFovt95HF0WT7CAkhdzdSqIIQsBVCk7tCCH1vE9pkD5Y2WY6H/y2Ox8OPFo/mxyYYsHg3nDTBiZVZf5xYLK6/jQ3HZuNBMOBiFC8jhYwUspVCFRiwCc0G20EGW6vbDvxYHLfDDxYP5odRYMDi3XA2CpxZH/U4s1ist5HhyGy0kRhwMYrXxJJCN/4EAH+6MQGEyBLcfwTw6JOl8dX11Adw68NF2FVK7uyCxQ9vwQen+l/5NKkT2s2zr8BnZ2dgIweq0fS9A+5deAU+nd8xAbpO7sQ7qXHc600Qvp89Dp/97Djc7E0uzkczZrbfvhMb7+eWYXV1GRYnIAYW31qF1bcW2zNvz1+EldVVWF1dheVzMUa8P9yzFbg43/64WY/xY2JjsXUxeAIurqzCysUT7YmZ1tlocmPUxam7hkAKnYQdK7fgkHadO+mJiM/PvAZ73sYyv4M9J4/D50sT+CJx98TNo/uwJMu+cR8eAcDDm0XZsN0nECBNyJ5+SSFfHsQ/ItvSJ455UWR1skd5RW1FfqnPML6PPyl08uZD+Aw+g4d/0IihXbD4h/j+ZsAjbg1rch98QjsDe6/dhiPadf6MH5wfn12CfVewzA3Yd/oleLzBYOmJmwuzcEWWfWoWPv3ZK/DgWTnAhQSxCdnTLynky//sFfiMXkS2K/ML8Bn5zv74iPKyuqr8Up9hfB88aVZ1T3ZYgHtPDUPO9raxY/M0XDl2GP7zzDzcf/kk/NeZE3D5rw/D1zZtas0fH4PHcQ96e38Kz2hxfO02PLMwB73eZph+/irsfzfG8rsfwd7nZ+ttUBqvPSiNcU+ANMFWv/iegQcJu0U8F6RpeJ+PLQGfPs6z+iMiaoZMCmm6FHZobzyysVXODUP+/vTWLfD3x+fgH099G/Zs3VyP9SH3X6brMOL9ifM4J8v7VXjC6bH9Jdh16Uaa2w9cWoKt2xvgwhMFGkkQkjaN6DhxcaUZ2dMnKRTaDUSGIzPCRUglT3Rosjo9F2E51cG6o0s6h0IKESJH1b8xXoMtEhnk6lXargFOGvfd7raGEYvrNvdGG3ssZVgmcTAyX5SPAb3ScSNgr57s6ZcUqo/vqhhUx5aVi3BiZLZsd1yUzV0b8dzFKF5DIIV2w5ePnYOvHjsH0393C+au34VvLIbvX/36bpj65jU4cv0uHP3FNZh2Zc7/Ho5evwv7Fw7Xr1y5+dBRP3BDkEKegHEMS7bS5wb4GhlZlJMrjUkhJHSyvhzZUshWTwo9gvtvEDm8bhqxRcoIvZuQGHmZFpFCJf7MZe7XBuXETzVhVN/P4BPaAdg6fwG2z1+AXZdu+/g48KPwffuRA9CbW4VZFx/vrMIuV+bVj318HHz5W/V/YJckQSmZyVb6VCd0dDBqTAohoZP15ZLRIhmsJ4VEgut104itYQ/0/SbN1f1X6jnqybAEH9TPw5D31MxT8C8vHYe35g7BKwdn4B/+5lvwv9//LvzgQHtWmg0exz3obf0WbIux/NTbd2Hu+m3YdzrE8rZndsL0wg0fu0fe/CXsnP8x7HnzNhy9fgf2fefpmlguwyASNCI2ej1o7reytnMc+zY1MtbFeIrv6jFEkyuQpsVYQPE31M8N8N6sv2j3pHO0FbNDbr9mbct61fZcS5uaD3g7zTHB6xWyOyL4F8eOeALYEcHjSApNH4nz9On3/d+wc29f9fP49vmTML3pDOz99V2Ye+9j2OvGgNOrcOi9u3D055dhelNhJ91+CoHg5oZEUOTJaFXyxfpoTArFhE9J0hbfIiRQJbGh6BF1qE9Q62xU/76xTarmXUU/365iF2Zn2abSTkjic19WtiPbVb77ZLtf+ZR2BpWjaf12z70BZ0PB0ppsnBM1Zf71Mq4qpKuGPVWWvK8yHyKhw0hO16bri6zOq7JbrkckvDqE3TL71D3Pda8fz+raXM/3SAi5+xBIoSKx/sLC733Su/uofHYHdszgs/0wvXQLDr3+KjxWS3poJE8kOR75tUKcMOqDdGhGCmn9ox783jcpNDUFTob139Y1CaSQ80VODA1KCDmyaigTWhygp1/+2MfHvu8UA0R4dgf2zuKzOdi1fBuOvPlTmFYHdizn7lpCEf/gv7CQb6XoI2lqRgpp/VP5is+ViYonlvLE18mw/v8zP3iCRAfrSj1r/VnYi7a55s8N/D0MeXdv3QxPbp5OxMf3Zp6G/z57At59rsEqmRHZZJhx7Pyx7ZIjhT6G3TOFz8Kzj2AnrhbYtBhWCcYVgVV+VP3g/bcAn2bbG/vBbMOyDbAS5K+OeVUPP07l8V1ljzW9a6xD4bO8n4b2Ghpuq+2Zy1cle3in+4DWG1zHQ09ug3869R24cuwI/PP3nh9LUijZfuYyHLx+F+Yu/TCNcb34bPb8S+nZ9OmP4Mi1j2DXXmpr/bOWTIVEYsVvQeLJmEK+lOGvESnUPDmsXu2iy+X1IIljsmOZzGt8rtmw7760hNo/65PM0dpp5AsdH1V6dDHhrNKn33fDnntd/0PB0ppwrMSihqW4Km9lZQVWBanSHA9KX5rMfeC2ym6qXKpu/cdAv5gZdXlVd83WLXk2UlJoak+YUI+u/A52PP8cPPalx+pXCCWyKBAafEWQI2oewf2bbgsZX30jiZ60oiju26LbzVLZuGInFOHtVRI9ScZADlWW9auNeNtTUwpZg6uScJ8ZXZ2EhJcoQ3XyK27E+0ef3MjPFBJlmH39O7SvE0SshkLZxPY9tKe/Q0524fOiOrYbfZxeSDtx8q1uVRESQX/+vz+HLWVr2DJG+xhmMqmRQr2Dv4TDbqXQtRuw98WTMN3XEvzwxz3fDuaSjAW496zbQsYTMUn0+OSBbPWgW0JSWZ9o4TYS3l598lEM9pVlVVJISVx8OZRFnHmECaEoQ3XyE4N4/+n8TH6mkCjD7OvfoX2dLHwFhKant2WJnXsoN9qZbLHj9Y7DTSxLJpIyH/K6uZx41gzbsod9S/3xOem3apI9u//r8D/f/y4szx1OCVNV+VG8G2YcO3m1P0w3nXjfrxQ6+s512P3tF2DT5gL/tTp63yrxdXYmbCGjq1YQg2lbYiAWki+Zv4o44lihuC3K1MqpEtGFnhr+e5m8cVtcigmuN4495fKG/jjG+4sPryfGE409fNYI68LuYrxNsS3iKY1J2G+yA10ZKdomPg16U//hNsNj8PACGR9du6Se11nI4jCTiHcpD8VciT3cljG3SmgcVwqlWNBIod4LsOdXbqXQbdh//sew9amdfY11PmkQZ/+4BGvl4mJ+7odM0nxiVWzXYtvNUtm4EihuiWErd1KZIm6TrtLPlUmcTgrliSKXhSW1qX1ehsnrZeLvnc599dPDhDjYN537k/ontmD2CfU4SdcDmvQFXxJ/rC7DdXfeEd2ORBJ5L3d6R1ZllcmYfBJkUduVmCD9lfo2tUt0X4dnrZ97G5FCdfgrwZezp/QNEqbyeVoFFPpiMeDLLsMiw6bzG/ZbnBNUj68TAb8Jg5QAzdurwk8egwWWaIwUbQTdQjxhXyImPQaFvbUzuYT9srHTv1+Bi+fwrC/UU7aNz6k9C5nSWCG2y8oxIegYdOpijCIxtO4rhVyC7c8U+oX7n9VwHfzJa/ClLzRL9jOyxZEj/uweSarw71m9SIQgiZJICkK8+DqJaOLtUaJA+5z1R0kjJFrI9rHQFxIjeO4QJUQiWYLyIXlFzi3S2+Bb0lDPtCIpk0X0E+0kz0fK9CuxJ9pXs9EUElvENl4+1HFqCpY+eci32ZGyapvK+0t/dKvIAB798VIfBKSOx2FOaCop1OuBP1PonSI+Dr++BFsaJpRZEub+sPeJgEz0+PesXkwWMGFJCRdJDEKShgkcb68Y9ItJgT7L+qN/fChJY+iLJD5ZmdB/ImwwoSFJkN4GTbyK5DQlRnX9RDtlyVbUJ9PzqVl4QA+x9nKiDXsQEkdBcPUwySPnRWG/hITS+mJnSfm+iA2pzcvkzZL+HXDvLJFDaYP6ee8TW3yC+B9/Ow/P7ekvUaLtDPvzMOPYyaaRQulMoWsxlt+7AwfPL8LjtdtJXMwEEgDjD0k7/136kX2X9SR2YpzQ5B/xhVjKMK/HcPBJ3h/1VYbJeNB1ilPsm4wrIQaKmMCxJ8VkWRsk1gPxxMnPTJYYQ8nG3o489nzfVLYyvMe2ChmLWM7aJ3J6mdDuvm3NnvkzL1dqR4y9DA9NthaK+k6ODAMz8KCBHSaXFMIzhcJ2b/e37dFfvQ+7Dm5rRg5hwpIOH3aJSiAIZDLFvmf1YhKCiaZPGh0hQRKdmDxhklmVyNFY9p+z/ujYQBO8+Nz3T4mOvIzvH0mLKBuTt6QNlN/JlYgY1DsmbDRRY/3E5Dk78DnTT8ob7EvbTf2jDi5+snZ6oG0fy2zPdMWEktqP2jt8ZnjwY4gi81vtObul/XNv3UqhYN9q/JX4LsOFiFeF1HH4kjjxPvdYl77m32U9fg4Rysi3oPk6OF5k8ub48+OCx10uJ32X41TGCcoj8O5l4DIGPcgB7rEMjcugB6kXyzAS2o8dy+zQd18vxXIuUxprCDEVnpExNtoD9c91537yZF7LYnSkpFBK5r/2HHzt3O/CGUM/OQd/oST0qSy+EyQGJREYUcHKxdVEhIRx7dK6/jMhWEK/lAgKnyXJ4espq1qYLCg73pFoSfX0lTSJuMF6lETxnylp5EgMvr2N6lfYkepUsmWN9iPIntDOWu0piBbaj9eRy1bILOqhPRrcO7dSiA4me07CzvM3whlDr1+ATfRd2WfxxzxNalhSxMq5pKNIwnAgo3V5EoITA00mwueUAEX5fL30P99FH0wWqUtMsNJKB5HAOvlcuywBc23QZMh/LvoLOvHkiuqHOmPyjW3X9hNllXpje5V6er25TDIh9u0wX6Hthb4lW3KYjtQ+0ubxeyZvWd8l9VFvdz/05Ha/pcQdNN2m84ScbKP5wxR9tRk2PbMIu19zZwrdhcM/eKFRosh8x/zAMUPLef/J5J3VDXFKSZngM9KmLy/Jw/A+xWQiJEg9BRNenhT/jqQRMan2RccVSWpFm1IsM/3Q5muNDy6fGv+KntQHNAbY8wZjUk4GRlKn0qdU19wfWUxn8nN7e/mpfbPyxMbi3USTQmiLzQdg64tX4YA/Y+h9eHJrub0KrITkIyWanhyISQZLzHg5l8CkOtg/rctIhkIOmqRobRSJT1jhkpItJkvRXtAjJDrsf8UTSRPK+nbFM0agKMmdXP1AZS/sxxPS2n6QFFJlKV/Vg7Ike0SbZzJpdqJ+cfV8GZlIUv/GhFTKiH7up29Rh9pt1J+7MPcioaBhOfN1tK2vk3yl+06LNU4WUv+T+GLY4WVYv7TcmvFFCAu1DRHniUDhMShxldstttPAZmz1o2JvZoOEdW4nXKElY1fKWe+PIDcfd4nNUv+F/zLdtfFBqZfJNqIySAi5+7qvFPrKovvVsQ9gejsm+vthi1819Bv4ywZJPt9mxUmQ8KteYbUNI2UUEibxMXFVik6gUOKohrBgJJRb4VL362MFoePLphVJzi6hryQj+xBXE2WEiqtH7RHakCQWth0Ipwb9CL08UTOAPRnRo+ngnzmFyaqpRrhAPOG9m2cKPfEj98smH8GudDbJHOz2q4auw7ZGAwL9A18kCCQBY4mCfy62GWAiF5MRltwQOYrntN9iMEyDmkjcWP+kPV9eK8uSydBXSlBRVn+Pyaya1FB7hDZyMofq0aAfIWvSN+qk6qnYO8mhye2epSSc2JaWVdpM9sGEkpaXNq+Q1/vY2RbbKalLdT/+9G7499MvwL8tHAf3mb5rw+f1/8N0Fna+4WJ5FballUE/hH1udew7lxucD0YT/Xy1h/NJIC4ppiOBwuIB4xrJDopvgiX6U/V9YZr3L33L8R/jiWLZYxJl5HdKzGbYo1h2n2mbiE9aZo3xUYxv1Fbyc9ArxTD27+5UNipPKiPtJ7838WmQpyxOuQ+k7O67honoK4WQlz6m3yeWFJq7Coev3Yb9p92vDgYbl60ExvfyThMHnuSE5MYnMyyZCM9Z4iq3gNAkMWGOr1rhfUl8iGSH9V9T1vdN/jcfVzwkGSn5ElcHqO3z5M7JyxOyIAfVw3+u6qdkRQYjqNBeXg9cvUB8ge9xpRJJjsvbISRQtI/mv6Af11viBb9T3OCzpH9KuKWvNu57F+ZeiiW0Kd7duzr8IXnIyzWI1zJc0pVvMkYcjiL2mNxrxhfBneyLYN7ZQ2KP9a+VFTGp2Ud7phI5SW89JjMfVOji9WCyYZwSWyR9xJjon2vPihiTdnK287ZyfbY0RpEYWndS6C8O/8avDDry9jv+18e++vw7sP+3d+Hom00Omg4JfyJcPDlByYOCFGEkT1YOiYPizsoTEoI+p58ZueHKC/IkyUjaSnVEWfect11G6BTyaluv1koK5cQR6UeRlZJvSSehJ9eHtEfLaaRQfB+IsrWSQzkhhHLiyiH95+pL5CQyD3NC0/5o3PTcdb8yaPbKVf/rY9tfvAoH3a+YvN3koOkwCKUkwCdC9H/8i4SDJTtZuWIww4mQlU+DY0xYaogj34ZINJOMpC3sK9+6wPvBJEZNwrC92gSsLJGjCVJZGWIfoVfSIcoh9QyJGyborp3CJ76uJjdNLFE/d6dlG/iQlaftkM9S3kKfIknMEnRS35U/sGMb/OvCC/CHF78NM9u2piSpaIvYT9QdVZlhxrGTWds+Nn0mbCU59Npl2Ol+pez774fYvnCmoU0KbDjcIEni+kt+EviT5XJ7UnxTP9DnRb95fdK3910/ZUvwrhE6BBfq2EOxv47xkexM5MltUjFOUNmozKk9aT/5PYx91Pd5/8GPXlaFvK3XgfqeYqLwlyOYm8gwsaTQ1kXY51YG/fpG+PWx+R/D3p+7M4ZuwM501pe0rfiekpY8yUnJlk/0eMKiJkyIL1ae9EeeawlLgTGR7CQZSVvYF01c4zPZttODJ32iHbV9npiVtZFsFBOuyn7Kku/a/nPfOFtJPRuTQpRISnZEm3C9C5/g+3DP+k7thPqedGpR4tmFuZdiSdq9Cf4yQsL7RMcOb7/c50mmRIZEHCTMirqyXMIF4keUT+/pcxH/qYyOvSSjKKfGSFaG9stlVMe4pF+ol5cR7SU7YdvuHvRDUs37goyNuh81m2jPin66GKPrQgo99t0P4NDKLdhxiCbbj8Hnn1mCp395xy+ln/vtHfjmT5bgy1+hZWo+RzLhvluNQ86fKciVh+Kn6AuyCMkBeddJDFFPI0iQMBDv+iWFAtFSnP+jy0PsohIqVN64CkjYB4kj3JpW24/QK9iN9kNkQltkJJdeRie2aNn6fqQf3fdq4qecMNLaks+GOaFNL7hfJ7kNe48Vg4c7h+Txv7oM33g3xsd7d+DQ65dhK/6CUTaQ0rrxc0w+7s0vZKs7QoJ1HB6wn5rOExE+UUlSBvsU9USCytoQ7yoTFVHWt+OfFef/qIkitU1tAhYSoZzgCDphAlTbjyYrkYPrKezly4lnmtz+GSWSgv1DEoikn2iHyJD8oLUtynF50c/k3qCNS7P7/cHSv3puFl49sj9dC9/Y25AMIf0J+ZIuAz4fZhw7mZ44H1f4sV8a2gbT86tw4Nchlo+u3oEDr/6wwU9Uo/6YrM/m2zsj7h6cXWCrZGr9p64Kyc+QqWqHv6vGHS8b9PLP8BydmvhxtlVjkOJwPeNDjDtl+FNllLJTmRN+pf3kd0nCITbE3cvpxoK11Eec7SiNT82Pmi0mghTa+1N45tptOCJ/RXDnS7D79Y9h9r1whtjsu+/D7tmnS22a2y8mFhfdQahI/EQ/x0Rl2R1YTBL8qiTMt88SnAIzvF5VQiPeqYkVtivKeoyHZ0jQlCdHsQ21fZ7cedkzMiWUQdvU9jMgKYT6oA8zmTQ9pC+0MmlccPbgemNf8l6rq+yX9YG+G929C3Mvjw9um8zX3p4cf2W+q2o3+LXc5+jnixmxGuu8tQwr5JwblZhkvi/pS+AS+z3B6gabyHdV+smyEsf92qzoS9oe/cXHHtUeWmywZ5qNyse5nJjS7ZTpzvpE+TfujoSQuw91pZBMqIf33ZEFj8D9Cj2SG6ntku1HnvwQW5LoIcbhPW9PrxMOLc5W1wjypG9SyB+q7Nqm28MKksjr98Z9ePjJUjgsuZYUmoJAuvA2Mj2jvZg+tB+hF9pZt01xKLR/LwipsPqHrOzK2l6C+3+6D0uJXFobKTR16gO49eEi7ErtUKLJfd4Fix/egg9Oyef134c9oWWDgzLw9l/GJQbaT1fj6hK3TQPJhDDw+KRGPLsyfxzuxf/lDO/5/xbrdRbA/a9ytopHJH+VSYYoi/qzZNInWKIfeohzkwRMaSPTUynjVjKlw6JLZGUyp5UQefKF/SV7qXJHAiu1g0k896Puj8KHpSuwaLuyf6qrw6Z8r+DV/fT8/ZdPZteH88f6SJDWd0LsRhwjIbAAn4rYxNVy2QoOj0cep341Wtr6F7HEYlTBFx7mnPWLMuFh4zkJgdh3dz3OY39eJq1vRwQV45PHdZI/4oLhUGkj2oGOc7Xxwdok+PPPpU1jDKJcmt19PULmqu1L+wVdkJT2ttTaduQP9h2JIKzDxkk1ZkOfWN71kdn42eNsDNf9SGwUx4GJIIWUMY9ifpDPLtHRfmY6/Y/2Kt+OlR246mSbvwjLF+OvD/lkYzVtL/GyxWcsgYnPJNmB/aayImHkumrJEm5Vo9vD5GqhRVhGokttXyRmvgxvwyecdCuGUsbrgv2UES5a/942uH0MD7UmpJ1m49J2SL0oA1ul4Fc5YRmhd8SdT4YpKeb7xzrC/66OfL+O+OV4yMcH974Lc29BOCg6KNjK8FeGr4iVFE8yXnFbUcIp6T9iamVFjAG4Us3hn+KiIb7cSrJCnkiwaO1Iohr7JWWr7LZWUiiQOTzeA6aLmNTGQS9L+gU3PMOL1Im2Z0QarhxKumoxqI1z/Nk4xKiLU3d1hBSK263YOTwxofdEA2QriByZgYRIOqKHkBZIYvAyhMBgBEMgK1I78QMlqIrtT7yUJ18yMgTJiNguypUILmyDyNOEFHIyizYe3gwriKisskwiplz9Ulmb2RNJJHfPSCHmE6dbfsYRI6uYD9Bmo713YUJzE29IgEhCgn8IYLKUEopi0gl1yLkepAwmDbxMkbjxPwZC0pHOtIlnnNAkJCQupK9YxpMjXkZF9pj8pNU9MVkr+iHyNErAkOQo5HjwrJKUVfVTKmuwa5ZMof2TviIpVOV2bcXEN9bzZ6goZbl/8nOAivfBVv47JYVoP+65kJcm2dznBY668LwrcRyIvNyPjWIcsaKcx/Xp/Azcoz9XzjBAfJlh38UKjU091vGMnwz/OA7FdgMZKrAttip5jJKxyOMrw75ow+mTlcFxsYj3NJY4uZTyBZY1PakdKFGL7ZPxqLR9Ef+pXGgjkcVZHGLfUW/mP/mM2MaXC33S8TjhDG0f/ZPGVtY+wQf6s+X3zsR7TBpzciYmaylZIT6IdYqzaQhBgISAKFMkgaQdTCLZ2Rp8ZRImaEVf8Vwgn8TyxKiIHZFoxqS6aIMkahqZoiXYog1nrywhFWX4L41pyR4mjvSsI/eZ2NPjHH1R6J4lvJoe6AsWK6ItmsRqeiNpQBJxXGHh7emeZ3pL+anPR/+5CyP6gnQAAAPrSURBVLGIhEKB0eDrFDfCxjn+SvDlfC9iMcMXaZuPA4gVxZ+xTV7e+RbrFJguyqCM/OfWObFE8JHJ7doksYvYlONHya8oFuMD9oHyREKbxgmxSfBJuQ3QZ8vnRHu+DS6vkyERel7uZVhkcSra8DJp4xx/lpFC1A8diVEXp+7qDClEyQb7PFpiZJLt3YUJLR9scdC1+1jZpjKJNV9X+dri2PBRhQ97N174sHgfL39afHbXn+MaixkpSUkN+7wBq8Q1Qqe7cTPKMc/FKF5GCrVgNcokky5t131cJ7RRDjjW13AmJnUFhf3x0eiPD4vj4WDQYtns2AUMWLwbTruA00mQcTxjka8UmQQ/tl7HkpVBrZe7BX/DuxjFy0ghI4XCmUVmB9UO4zmh2R+M7Z4o3PYPvhUlbL/DLSTmv379Z3FsmOkXM1a+u5ixeO+u7yzuxst3nY9FRzawM3/CipTSbVctSPLHPobOLYtfNQwkHR48P/b6DxljLkbxMlLIyBCVDGn7Cp5Rydf5CW3Ig4cNtqP5g604CwjPKzFCaBDsWRyPBreD+Mjqmo+GhQGLd8PSsLBk7QyGpe7HYiQc6Nk57Iynwexj+FqD/bIzh8RZaJb3NFpBj9hzMYqXkUJGChkpVIGB7k9oaxhwbUDta0DFgdXu7cWaxXF7fWNxY74ZNgYs3g1Tw8aUtbc2TFksrs1uhjez26gw4GIULyOFKgiBUa1GsX7ae3C2TWg2MI9qYLZ+1g9rFsfrZ1vDrdm2bRiweDdMtg2TkyqPxaLF4qRivyt6uxjFy0ghI4VspVAFBmxCswmtKwO7yVmOVYvjctsYbsw244YBi3fD9Lhhuqv6WCxaLHYVu5Mit4tRvIwUqiAEbAVPe1fwjMo3NqHZhDYpE8M462lxbHE8zvg23Ti+Ld65PQwfZo+NwoDFomFvo7Bn/TbDnotRvIwUMlLIVgpVYMAmtGaDig2+Zqc2Y8Di2PDZZnyabMPFp8X7cO1p+DR7rhUDFouGnbVix+qNBjsuRvEyUqiCEBjVahTrp70rkmxCG82gZIO/2Xk9MWBxbPhaT3xZ2+3Cl8V7u/xh8TG5/rBYnFzfW9x3w/cuRvEyUshIIVspVIEBm9C6MajZ5GN+qsKAxbHhowof9m688GHxPl7+tPjsrj8tFrvrO4u7yfCdi1G8jBSqIARsBU97V/CMyjc2oU3GoGiT33j72eJ4vP1r8Wv+pRiweDc8UDzY543Dg8XixtnecG+2b4IBF6N4GSlkpJCtFKrAgE1oNqg2GVStTLtxYnHcbv9Y/Jh/hokBi3fD0zDxZG2tHU8Wi2u3neHObDcKDLgYxev/ATloCrFwo4ISAAAAAElFTkSuQmCC;" vertex="1" parent="1">
          <mxGeometry x="-1167" y="48" width="1157" height="43" as="geometry" />
        </mxCell>
      </root>
    </mxGraphModel>
  </diagram>
</mxfile>
